<?xml version="1.0" encoding="UTF-8"?>
<svg id="svg2" xmlns="http://www.w3.org/2000/svg" version="1.1" xmlns:inkscape="http://www.inkscape.org/namespaces/inkscape" xmlns:sodipodi="http://sodipodi.sourceforge.net/DTD/sodipodi-0.dtd" xmlns:svg="http://www.w3.org/2000/svg" xmlns:xlink="http://www.w3.org/1999/xlink" viewBox="0 0 1080 1080">
  <!-- Generator: Adobe Illustrator 29.3.0, SVG Export Plug-In . SVG Version: 2.1.0 Build 146)  -->
  <defs>
    <style>
      .st0, .st1 {
        fill: #fff;
      }

      .st2 {
        display: none;
        fill: #00990b;
      }

      .st1 {
        filter: url(#drop-shadow-1);
      }

      .st3 {
        fill: #0a94ff;
      }
    </style>
    <filter id="drop-shadow-1" x="119" y="-15" width="856" height="1111" filterUnits="userSpaceOnUse">
      <feOffset dx="2" dy="21"/>
      <feGaussianBlur result="blur" stdDeviation="14"/>
      <feFlood flood-color="#000" flood-opacity=".4"/>
      <feComposite in2="blur" operator="in"/>
      <feComposite in="SourceGraphic"/>
    </filter>
  </defs>
  <sodipodi:namedview id="namedview1" bordercolor="#ffffff" borderopacity="0.25" pagecolor="#ffffff"/>
  <g id="g8">
    <path id="path1" class="st1" d="M930.3,392.4c0,175.5-234.9,487.9-337.9,616.8-24.7,30.7-70.5,30.7-95.2,0-103-128.9-337.9-441.3-337.9-616.8S332,6.9,544.9,6.9s385.5,172.7,385.5,385.5Z"/>
    <path id="path1-3" class="st2" d="M894.1,393.9c0,158.3-212.2,440.1-305.2,556.4-22.3,27.7-63.6,27.7-85.9,0-93-116.3-305.2-398.1-305.2-556.4S353.7,46.1,546,46.1s348.1,155.8,348.1,347.7h0Z"/>
    <circle class="st3" cx="544.9" cy="385.2" r="311.1"/>
    <path id="path1-9" class="st0" d="M513.7,274.1c20.3,0,36.6-16.3,36.6-36.2s-16.3-36.6-36.6-36.6-36.6,16.3-36.6,36.6,16.3,36.2,36.6,36.2ZM581.1,369.7v11.1c0,1.9,2.1,3.2,3.8,2.3,92.8-49.9,131.3-203.2,134.7-229.4.2-1.5-1-2.9-2.5-2.9h-8.4c-1.2,0-2.3.9-2.5,2.1-6.7,38.8-49.6,176.4-124.9,216.8h0ZM555.4,646h5.2c2.8,0,5.1-2.3,5.1-5.1v-150.8c0-3.7-3.9-6.2-7.3-4.6l-5.2,2.5c-1.7.8-2.9,2.6-2.9,4.6v148.2c0,2.8,2.3,5.1,5.1,5.1ZM421.1,355.8l39.7-15.6c6.4-2.5,13.3,2.2,13.3,9.1v49.3c0,5.4,4.4,9.7,9.7,9.7h72.2c5.4,0,9.7-4.4,9.7-9.7v-72.7c0-1.8.5-3.6,1.5-5.1l80.2-128.9c5.9-9.4,3.5-22.3-6.4-28.2-9.4-5.9-22.3-3.5-27.7,5.9l-66.5,107.3c-1.8,2.9-4.9,4.6-8.3,4.6h-36.7c-2.5,0-5.4.5-7.9,1.5l-65,25.4c-4.3,1.7-9.1.1-11.6-3.7l-33.3-49.9c-5.9-9.4-18.8-12.4-28.2-5.9-9.4,5.9-12.4,18.8-6.4,28.7l46.6,70.8c5.4,7.4,15.8,11.4,25.3,7.4h0ZM643,403.8c-3.5-12.9-18.8-22.8-31.2-16.8l-40.9,18.9c-3.1,1.4-5.1,4.6-5.1,8v.9c0,4.9-4,8.8-8.8,8.8h-77c-3.5,0-6.7,2.1-8.1,5.3l-69.5,159.1c-5.4,12.4.5,28.2,13.4,35.2,12.9,7.4,27.7,3,32.7-9.4l55.6-128.1c1.6-3.7,5.4-5.8,9.4-5.2s6.6.6,9.8.6c5.2,0,10-.9,14.3-2.3s.7-.3,1.1-.4l55.6-25.9c5-2.4,11,.5,12.3,5.9l11.8,47.5c3.5,12.9,16.3,20.8,29.2,17.3,12.9-3.5,20.8-16.3,17.3-29.2l-21.8-90.1Z"/>
  </g>
</svg>