<?xml version="1.0" encoding="utf-8"?>
<!-- Generator: Adobe Illustrator 24.2.3, SVG Export Plug-In . SVG Version: 6.00 Build 0)  -->
<svg version="1.1" id="Layer_1" xmlns="http://www.w3.org/2000/svg" xmlns:xlink="http://www.w3.org/1999/xlink" x="0px" y="0px"
	 viewBox="0 0 100 100" style="enable-background:new 0 0 100 100;" xml:space="preserve">
<style type="text/css">
	.st0{fill:#333333;}
</style>
<path class="st0" d="M46.1,24.9c4.1,0,7.4-3.3,7.4-7.3c0-4.1-3.3-7.4-7.4-7.4c-4.1,0-7.4,3.3-7.4,7.4C38.7,21.6,42,24.9,46.1,24.9z
	 M59.7,44.2c0,0,0,3.1,0,3.1C79.9,37.2,87.7,2.9,87.7,0H85C83.9,7.2,75.2,35.9,59.7,44.2z M53.5,100h3.1V66.9l-3.1,1.5V100z
	 M27.4,41.4l10.7-4.2V52h18.5V34.8L73.1,8.3c1.2-1.9,0.7-4.5-1.3-5.7c-1.9-1.2-4.5-0.7-5.6,1.2L52.2,26.4l-8.5,0
	c-0.5,0-1.1,0.1-1.6,0.3l-14.6,5.7L19.9,21c-1.2-1.9-3.8-2.5-5.7-1.2c-1.9,1.2-2.5,3.8-1.3,5.8l9.4,14.3
	C23.4,41.4,25.5,42.2,27.4,41.4z M72.2,51.1c-0.7-2.6-3.8-4.6-6.3-3.4L56.6,52v3.1H38.1L23.6,88.3c-1.1,2.5,0.1,5.7,2.7,7.1
	c2.6,1.5,5.6,0.6,6.6-1.9l11.8-27.2c1,0.3,2.2,0.4,3.3,0.4c1.1,0,2.1-0.2,3-0.5l13.3-6.2l2.9,11.7c0.7,2.6,3.3,4.2,5.9,3.5
	s4.2-3.3,3.5-5.9L72.2,51.1z"/>
</svg>
