<?xml version="1.0" encoding="UTF-8" standalone="no"?>
<!-- Created with Inkscape (http://www.inkscape.org/) -->

<svg
   version="1.1"
   id="svg2"
   width="1080"
   height="1080"
   viewBox="0 0 1080 1080"
   sodipodi:docname="climber.svg"
   xml:space="preserve"
   inkscape:version="1.3.2 (091e20e, 2023-11-25, custom)"
   xmlns:inkscape="http://www.inkscape.org/namespaces/inkscape"
   xmlns:sodipodi="http://sodipodi.sourceforge.net/DTD/sodipodi-0.dtd"
   xmlns="http://www.w3.org/2000/svg"
   xmlns:svg="http://www.w3.org/2000/svg"><sodipodi:namedview
     id="namedview1"
     pagecolor="#ffffff"
     bordercolor="#000000"
     borderopacity="0.25"
     inkscape:showpageshadow="2"
     inkscape:pageopacity="0.0"
     inkscape:pagecheckerboard="0"
     inkscape:deskcolor="#d1d1d1"
     inkscape:zoom="0.79680459"
     inkscape:cx="318.77327"
     inkscape:cy="710.96478"
     inkscape:window-width="2560"
     inkscape:window-height="1494"
     inkscape:window-x="-11"
     inkscape:window-y="-11"
     inkscape:window-maximized="1"
     inkscape:current-layer="g8" /><defs
     id="defs6"><clipPath
       clipPathUnits="userSpaceOnUse"
       id="clipPath16"><path
         d="M 0,0 H 3375 V 3375 H 0 Z"
         clip-rule="evenodd"
         id="path14" /></clipPath><clipPath
       clipPathUnits="userSpaceOnUse"
       id="clipPath28"><path
         d="M 0,0 H 3375 V 3375 H 0 Z"
         clip-rule="evenodd"
         id="path26" /></clipPath><clipPath
       clipPathUnits="userSpaceOnUse"
       id="clipPath40"><path
         d="M 355.37384,355.37384 H 3020.9986 V 3020.9986 H 355.37384 Z"
         clip-rule="evenodd"
         id="path38" /></clipPath><clipPath
       clipPathUnits="userSpaceOnUse"
       id="clipPath52"><path
         d="M 0,0 H 3375 V 3406.25 H 0 Z"
         id="path50" /></clipPath><clipPath
       clipPathUnits="userSpaceOnUse"
       id="clipPath58"><path
         d="M 0,0 H 3375 V 3375 H 0 Z"
         id="path56" /></clipPath><clipPath
       clipPathUnits="userSpaceOnUse"
       id="clipPath64"><path
         d="M 0,0 H 3375 V 3375 H 0 Z"
         id="path62" /></clipPath><clipPath
       clipPathUnits="userSpaceOnUse"
       id="clipPath70"><path
         d="M 417.58176,417.58176 H 2957.4182 V 2957.4182 H 417.58176 Z"
         id="path68" /></clipPath><clipPath
       clipPathUnits="userSpaceOnUse"
       id="clipPath76"><path
         d="m 1687.5,417.58176 c -701.35645,0 -1269.91824,568.56179 -1269.91824,1269.91824 0,701.3564 568.56179,1269.9182 1269.91824,1269.9182 701.3564,0 1269.9182,-568.5618 1269.9182,-1269.9182 0,-701.35645 -568.5618,-1269.91824 -1269.9182,-1269.91824 z"
         id="path74" /></clipPath><clipPath
       clipPathUnits="userSpaceOnUse"
       id="clipPath88"><path
         d="M 702.33643,702.33643 H 2674.2114 V 2674.2114 H 702.33643 Z"
         clip-rule="evenodd"
         id="path86" /></clipPath></defs><g
     id="g8"
     transform="matrix(0.31999998,0,0,0.31999998,0,5.3930666e-5)"><path
       d="m 2907.3241,1226.1989 c 0,548.3548 -734.0674,1524.6018 -1055.9277,1927.3978 -77.1712,95.9935 -220.2202,95.9935 -297.3915,0 -321.8605,-402.796 -1055.92811,-1379.043 -1055.92811,-1927.3978 0,-665.05245 539.57111,-1204.62333 1204.62391,-1204.62333 665.0526,0 1204.6234,539.57088 1204.6234,1204.62333 z"
       id="path1"
       style="stroke-width:6.27408" /><path
       d="m 2794.0841,1230.8587 c 0,494.6571 -662.98,1375.3052 -953.6712,1738.6574 -69.6979,86.5933 -198.894,86.5933 -268.592,0 -290.6915,-363.3522 -953.67175,-1244.0003 -953.67175,-1738.6574 0,-599.92712 487.31885,-1086.66059 1087.96775,-1086.66059 600.6486,0 1087.9672,486.73347 1087.9672,1086.66059 z"
       id="path1-3"
       style="fill:#ff6600;stroke-width:5.6631" /><path
       class="st0"
       d="m 1635.7445,919.18387 c 73.7551,0 133.119,-59.3639 133.119,-131.3202 0,-73.7551 -59.3639,-133.119 -133.119,-133.119 -73.7552,0 -133.1191,59.3639 -133.1191,133.119 0,71.9563 59.3639,131.3202 133.1191,131.3202 z m 244.6512,347.18883 c 0,0 0,55.7661 0,55.7661 363.379,-181.6895 503.6936,-798.71423 503.6936,-850.88253 h -48.5704 c -19.788,129.5212 -176.2928,645.80723 -455.1232,795.11643 z m -111.5322,1003.7895 h 55.7661 v -595.4378 l -55.7661,26.9836 z m -469.5144,-1054.1588 192.4829,-75.5541 v 266.2381 h 332.7976 v -309.4118 l 296.8195,-476.71013 c 21.5868,-34.1792 12.5923,-80.9508 -23.3858,-102.5376 -34.1792,-21.5869 -80.9508,-12.5924 -100.7387,21.5868 l -251.8469,406.5528 h -152.907 c -8.9945,0 -19.7879,1.7989 -28.7825,5.3967 L 1301.148,1054.1018 1164.4311,849.02647 c -21.5869,-34.1792 -68.3584,-44.9726 -102.5376,-21.5868 -34.1792,21.5868 -44.9727,68.3584 -23.3858,104.3365 l 169.0972,257.24363 c 19.7879,26.9836 57.5649,41.3748 91.7442,26.9836 z m 805.9098,174.4938 c -12.5923,-46.7715 -68.3584,-82.7496 -113.3311,-61.1628 l -167.2982,77.353 v 55.7661 H 1491.832 l -260.8414,597.2367 c -19.7879,44.9727 1.7989,102.5377 48.5705,127.7224 46.7715,26.9836 100.7387,10.7934 118.7278,-34.1792 l 212.2709,-489.3025 c 17.989,5.3968 39.5759,7.1957 59.3639,7.1957 19.788,0 37.777,-3.5978 53.9672,-8.9946 l 239.2545,-111.5321 52.1682,210.472 c 12.5924,46.7715 59.3639,75.554 106.1355,62.9617 46.7715,-12.5924 75.554,-59.3639 62.9617,-106.1355 z"
       id="path1-9"
       style="stroke-width:17.9891" /></g><style
     type="text/css"
     id="style1">
	.st0{fill:#333333;}
</style></svg>
